PathFileType	4	(X/Y/Z)	c:\Git\powerlifing_model_clean\simulations\HC835B\Session1\HC835B_OGW_0006\marker_experimental.trc
DataRate	CameraRate	NumFrames	NumMarkers	Units	OrigDataRate	OrigDataStartFrame	OrigNumFrames
240.000000	240.000000	4	38	mm	240.000000	162	433
Frame#	Time	RPSI			LPSI			RASI			LASI			RTH1			RTH2			RTH3			RTH4			RSK1			RSK2			RSK3			RSK4			RCAL1			RCAL2			RCAL3			RST			RPT			RTN			RFMB			RSMB			RVMB			RFMH			RSMH			RVMH			RPM			LTH1			LTH2			LTH3			LTH4			LSK1			LSK2			LSK3			LSK4			LCAL1			LCAL2			LCAL3			LFMH			LVMH			
		X1	Y1	Z1	X2	Y2	Z2	X3	Y3	Z3	X4	Y4	Z4	X5	Y5	Z5	X6	Y6	Z6	X7	Y7	Z7	X8	Y8	Z8	X9	Y9	Z9	X10	Y10	Z10	X11	Y11	Z11	X12	Y12	Z12	X13	Y13	Z13	X14	Y14	Z14	X15	Y15	Z15	X16	Y16	Z16	X17	Y17	Z17	X18	Y18	Z18	X19	Y19	Z19	X20	Y20	Z20	X21	Y21	Z21	X22	Y22	Z22	X23	Y23	Z23	X24	Y24	Z24	X25	Y25	Z25	X26	Y26	Z26	X27	Y27	Z27	X28	Y28	Z28	X29	Y29	Z29	X30	Y30	Z30	X31	Y31	Z31	X32	Y32	Z32	X33	Y33	Z33	X34	Y34	Z34	X35	Y35	Z35	X36	Y36	Z36	X37	Y37	Z37	X38	Y38	Z38	

163	0.675	489.3689575195314	1087.691284179688	-1491.927490234375	597.3019409179689	1083.177001953125	-1486.468017578125	406.9294738769532	1039.552978515625	-1291.868286132813	649.1886596679689	1042.322265625	-1270.336303710938	344.6940307617188	776.6414184570315	-1420.541259765625	349.1072692871094	755.1505126953126	-1363.814208984375	349.7486572265626	692.9945678710939	-1410.606689453125	365.2738342285157	671.5198974609376	-1358.368408203125	419.1176757812501	362.7033081054688	-1700.452758789063	404.1634216308595	311.9542846679688	-1668.26611328125	423.3233032226564	309.9899597167969	-1726.5439453125	420.0886840820314	260.6057434082032	-1692.402221679688	493.5072326660157	240.2723236083985	-1850.87060546875	533.8886108398439	215.5183868408204	-1864.685668945313	472.5243225097657	210.0367431640626	-1882.578002929688	536.3932495117189	175.0282897949219	-1805.499755859375	441.4623107910157	168.6682586669922	-1844.036010742188	511.0321350097657	144.7677001953125	-1761.341674804688	511.8465576171876	109.159423828125	-1755.536987304688	458.5535888671876	108.3694915771485	-1744.715942382813	436.6426391601564	115.7583389282227	-1838.203125	526.2937011718751	53.56653594970705	-1745.624267578125	467.1994628906251	49.9818572998047	-1733.568359375	412.2717285156251	48.04217529296876	-1806.685424804688	478.8396606445314	27.88977050781251	-1697.727294921875	714.7980957031251	774.3195800781252	-1262.432250976563	711.7711791992189	787.2270507812502	-1203.11279296875	703.3203125000001	706.8265991210939	-1210.632690429688	683.5455932617189	721.4501342773439	-1154.719604492188	662.4103393554689	271.6298828125001	-1150.912719726563	659.3392944335939	263.4623718261719	-1097.848022460938	655.6116943359376	221.4851989746094	-1125.881225585938	636.4057006835939	216.2715454101563	-1072.192260742188	591.8554687500001	83.18624114990236	-1168.450561523438	621.8424072265626	45.91629791259766	-1165.18798828125	563.4856567382814	44.1659164428711	-1162.2900390625	556.9315185546876	68.31945037841798	-940.3177490234377	662.6859741210939	37.86775588989259	-974.6631469726565	
164	0.6791666666666667	489.6587219238282	1087.750366210938	-1484.809448242188	597.8118896484376	1084.0703125	-1479.253784179688	407.6648254394532	1039.977294921875	-1284.448120117188	649.3848266601564	1043.170043945313	-1262.896606445313	344.2042846679688	775.7354125976565	-1410.671997070313	348.3812561035157	754.9547119140626	-1353.669189453125	349.4046936035157	691.9547119140626	-1399.954345703125	363.5676879882813	671.2736206054689	-1347.005493164063	417.443328857422	365.3206176757813	-1688.997802734375	402.505340576172	313.9320068359376	-1657.76806640625	421.4770507812501	312.9757080078126	-1716.059692382813	418.473358154297	263.1914978027344	-1682.601318359375	491.2309875488282	247.2039337158204	-1839.946411132813	531.8343505859376	223.440658569336	-1854.906982421875	470.3591613769532	218.286361694336	-1873.062622070313	534.9241333007814	180.7523498535157	-1796.66650390625	440.124237060547	175.1018981933594	-1836.014526367188	509.7637329101564	148.4113311767578	-1754.427734375	510.7381286621095	112.5567779541016	-1749.873046875	457.4611206054689	111.1086883544922	-1739.113525390625	435.4994201660157	122.0749893188477	-1832.276245117188	525.4124145507814	56.43086624145509	-1742.150390625	466.4654541015626	51.38070297241212	-1730.401000976563	411.833953857422	52.67234039306642	-1803.098754882813	478.4880676269532	27.25840759277344	-1695.97509765625	715.3219604492189	776.0269165039065	-1253.995727539063	711.9228515625001	789.1827392578127	-1194.729614257813	703.6993408203126	708.7348022460939	-1202.033203125	683.5472412109376	723.4076538085939	-1146.299072265625	663.1806640625001	272.5116271972657	-1147.537231445313	658.5690917968751	263.4608459472657	-1094.485717773438	655.1877441406251	221.8226776123047	-1123.037963867188	635.4655151367189	215.9331359863282	-1069.609985351563	591.6300048828126	83.41402435302736	-1168.288452148438	621.7555541992189	46.16741943359376	-1164.990478515625	563.3637084960939	44.19026947021485	-1162.192138671875	556.2670898437501	67.17213439941408	-940.1311035156252	662.3667602539064	37.87296676635743	-974.458679199219	
165	0.6833333333333333	489.7919921875001	1088.226196289063	-1478.84716796875	598.1892700195314	1085.03125	-1472.079833984375	408.3786621093751	1040.373657226563	-1277.44482421875	649.6166992187501	1044.10986328125	-1255.526611328125	344.0432434082032	774.661560058594	-1400.967895507813	347.5863647460938	754.9172973632814	-1343.39501953125	348.4173889160157	691.0986328125001	-1388.965698242188	362.2014160156251	671.1851806640626	-1335.638427734375	415.732635498047	367.8548889160157	-1677.506591796875	400.9461975097657	316.2153930664063	-1646.921142578125	419.6307067871095	316.0641784667969	-1705.3203125	416.9080810546876	265.6822204589844	-1672.602661132813	489.0322265625001	254.1183319091797	-1828.660522460938	529.8348388671876	231.3197479248047	-1844.53564453125	468.3894653320314	226.4629211425782	-1862.87646484375	533.5601196289064	186.2475128173828	-1787.715454101563	438.5154724121095	181.5598297119141	-1827.633056640625	508.416717529297	152.1487274169922	-1747.18408203125	509.5785217285157	116.2118148803711	-1743.837158203125	456.3407592773439	114.1816864013672	-1733.05078125	434.3298645019532	128.1189422607422	-1825.878051757813	524.3853149414064	59.5903778076172	-1738.179443359375	465.663787841797	52.96989822387697	-1726.963623046875	411.4305725097657	57.70823287963869	-1798.948120117188	478.0279235839845	26.4146842956543	-1693.985473632813	715.8498535156251	777.699890136719	-1245.811767578125	711.9213867187501	791.1384887695315	-1186.571533203125	704.1336059570314	710.5211181640626	-1193.690185546875	684.2817993164064	725.7813110351564	-1137.027954101563	662.8937988281251	273.1784362792969	-1144.3251953125	658.0816650390626	263.5664367675782	-1091.358032226563	654.8369140625001	222.2960205078126	-1120.422485351563	634.8498535156251	215.8087768554688	-1067.226928710938	591.4803466796876	83.55855560302736	-1167.987915039063	621.6586303710939	46.39007949829102	-1164.854736328125	563.3421630859376	44.41935729980469	-1162.057495117188	556.5559692382814	66.61094665527345	-939.616394042969	662.5732421875001	37.71663665771485	-974.219421386719	
166	0.6875	489.8955078125001	1088.26513671875	-1471.8896484375	598.5612182617189	1085.949584960938	-1464.930419921875	409.1600341796876	1040.797729492188	-1270.326538085938	649.9683227539064	1045.066040039063	-1248.231567382813	343.1575317382813	773.962097167969	-1390.93408203125	346.7483520507813	754.8633422851564	-1333.303955078125	347.4220275878907	690.3521728515626	-1377.937377929688	360.9456176757813	671.1815185546876	-1324.188598632813	414.0312805175782	370.6767883300782	-1665.510620117188	399.3513793945314	318.2883300781251	-1635.752319335938	417.7919921875001	319.2229614257813	-1694.261108398438	415.502899169922	268.4014282226563	-1662.16064453125	486.9479370117189	260.7848815917969	-1817.060424804688	527.5937500000001	238.7620239257813	-1833.888305664063	466.6550598144532	234.5359497070313	-1852.315063476563	531.5297241210939	191.2034759521485	-1781.041748046875	437.0200195312501	187.8624114990235	-1818.936401367188	507.1839294433595	156.1054992675782	-1739.501220703125	508.3472900390626	119.9170150756836	-1737.339477539063	455.1358337402345	117.3750991821289	-1726.62451171875	433.0245971679689	134.8020629882813	-1818.861450195313	523.1945800781251	62.89183044433595	-1733.785766601563	464.7647705078126	54.72257232666017	-1723.286987304688	410.9946289062501	63.09370040893556	-1794.221069335938	477.3957824707032	25.78745079040528	-1691.5458984375	716.2516479492189	779.1856689453127	-1237.868286132813	711.8034057617189	792.756530761719	-1178.619995117188	704.5427246093751	712.1425781250001	-1185.6484375	684.2160034179689	727.2957153320314	-1129.171264648438	662.7114868164064	273.9646301269532	-1141.318481445313	657.8320922851564	263.6550598144532	-1088.477172851563	654.6922607421876	222.8068847656251	-1118.11083984375	634.5642089843751	215.6664276123047	-1064.956420898438	591.5141601562501	83.74810791015626	-1167.763061523438	621.6704711914064	46.52844238281251	-1164.735595703125	563.3862915039064	44.55248260498048	-1161.888427734375	557.2680664062501	66.22982788085939	-939.106872558594	663.0893554687501	37.60630798339844	-973.9654541015627	
